<svg xmlns="http://www.w3.org/2000/svg" width="25" height="25" viewBox="0 0 25 25">
  <rect x="1.5" y="1.5" width="22" height="22" rx="3" ry="3" fill="#bda492"/>

  <path
    d="m21,17.42l0,-10c0,-2.21 -1.79,-4 -4,-4l-10,0c-2.21,0 -4,1.79 -4,4l0,10c0,2.21 1.79,4 4,4l10,0c2.21,0 4,-1.79 4,-4z"
    fill="none"
    stroke="#bda492"
    stroke-width="1.5"
    stroke-linecap="round"
    stroke-linejoin="round"
  />

  <g
    fill="none"
    stroke="#6d411f"
    stroke-width="1.5"
    stroke-linecap="round"
    stroke-linejoin="round"
    transform="translate(-0.12) matrix(2.00472 0 0 1.8276 -11.4401 -10.8322)"
  >
    <path d="m16,8.99l-2.87,3.06c-0.14,0.16 -0.32,0.28 -0.51,0.36c-0.2,0.09 -0.41,0.13 -0.62,0.13c-0.21,0 -0.42,-0.04 -0.62,-0.13c-0.19,-0.08 -0.37,-0.2 -0.51,-0.36l-2.87,-3.06"/>
    <path d="m16,10.99l-2.87,3.06c-0.14,0.16 -0.32,0.28 -0.51,0.36c-0.2,0.09 -0.41,0.13 -0.62,0.13c-0.21,0 -0.42,-0.04 -0.62,-0.13c-0.19,-0.08 -0.37,-0.2 -0.51,-0.36l-2.87,-3.06"
          transform="translate(0 2)"/>
  </g>
</svg>
